<svg xmlns="http://www.w3.org/2000/svg" width="208" height="6" viewBox="0 0 208 6" preserveAspectRatio="none">
  <path fill="currentColor" d="M103 6c2.6 0 6-.3 8.6-.2a6.9 6.9 0 012.3-.4v.4l.7-.1c.3 0-.5 0 0 .2l.3-.3c0 .2 1.8.1.6.4h2.7c.6 0 .3-.3 1-.2.1 0-.2 0-.2.2 2 .3 2.3-.7 4.1-.6h-.1l.9-.1c-.3-.4-.3.2-1 0 0-.3.8-.2.8-.4a3.1 3.1 0 001-.1c.6.2 1.6 0 2 .3a3.3 3.3 0 011.4-.4c.5.2-.1.2.5.3l.1-.2c.6 0 .5 0 .5.2.5 0 .4-.3 1.2-.2l-.4.2a7 7 0 011.5 0h-.5c.4.3.7 0 .9 0 0 0-.6-.2-.4-.4a1 1 0 011.1 0l-.4.2c.8-.1.4-.2 1.2-.1a5.9 5.9 0 012.1 0h-.1l.7-.2c-.5 0-.4-.1-.4-.3.6.3 1-.4 2-.2 0 .1-.3.3-.6.2-.3.3-.4.5-1 .7.4 0 .9-.1.8 0v-.3h.7c0-.2-.5-.3 0-.4s.4.3.5.1c.8 0 .3-.3 1.1-.2a.6.6 0 01-.3 0c.6.1 1.4 0 1.6.3-.1 0-.1.2-.3.2-.7.2.5 0 .3.2 0-.2.8-.1 1.1 0v-.3c1.2-.7-.2.4 1 .3.8-.1-.2 0 .2-.2a5.2 5.2 0 001.5.2c.2 0 .6.2.7.4.4-.1 1.4.1 1.6-.1-.8-.2-.8.2-1.7 0l.3-.3a11.5 11.5 0 011.9 0v-.1a9 9 0 012-.3c0 .3-.4.2-.8.2a6 6 0 001.5 0c0 .2-.6 0-.7.2h1c0-.3.7 0 1.3 0a5 5 0 002.3-.7c.2 0 .3.2.2.3-.3-.2-.3 0-.4 0 .5 0 1 .3.8.4.7-.1-.3-.2.2-.3h1c-.1-.1-.5-.2 0-.3a9 9 0 011.3 0c-.1 0 .1.3-.3.2a1.2 1.2 0 001 0c-.7-.2 1-.2.5-.4l.6.1h-.3c.1.2.5 0 .7 0a4.3 4.3 0 01.9 0 1 1 0 01.8.2c.3 0 0-.2.1-.2h1.1s.2.5 0 .5c.4-.1.2-.4.8-.4-.4.3.7.2.3.5a4.1 4.1 0 001.8.2c.3-.2-.6-.2-.6-.4 1.5 0 1.6-.6 2.7-.5h-.3a2.8 2.8 0 001-.3c-.1.3.8.7 2 .7 0-.2-.7-.3-.5-.5h.8l-.1.1c.6 0 1.2.3 1.4 0l.7.4-.3-.2 1-.2a2 2 0 011.5.1c-.2 0-.5-.3.1-.4 0 .5 1.2.2 1.2.4.3 0 .7.1.8 0v.3c0-.4.9-.4 1.6-.4-.2.5.7 0 1 .4.2-.3 1.3-.1 1.4-.4.5 0 .4.3.6.4l.2-.1a11.8 11.8 0 001.9.3l.5-.4.2.2s.5-.1.3-.2h.2c0-.4.5-.1 1-.3.2 0 .2.2 0 .2.4 0 .2.2.4.3-.2 0 1-.6.3-.8 0 0 .4-.2.6-.1l.2.3.4-.3a4 4 0 011 .1c-.4 0-.8.6.1.6a4 4 0 00-1 .3c.2 0 .3 0 0 .1.8 0 .3-.1 1-.2 0 .3.2.4.8.5l-.5-.2.1-.1c-.2 0-.2 0-.3-.2l1-.2c-.7-.4 1.4-.3.9-.5h.6c-.6.2.5.3.4.5.2-.1-.5-.2-.2-.3a1.9 1.9 0 01.9.2h-.2l.6.1c.1-.1-.5-.2 0-.3l.7.1c-.3.2 0 .4-.6.5.4 0 1.6 0 1.1-.3h.5c-.3-.1-1-.3-.2-.4l.6-.2.3.2a.4.4 0 01.3-.2c.3 0 .3.1.3.3.7 0 .6-.2.7-.3.4 0 .5 0 .3.2a9 9 0 011.8.2c.7-.2-.1 0 .3-.3.6.5 2.3.2 3.4.1-.3-.4.3 0 .5-.4-.3.2 1 .4 0 .5h.7c.4.2-1 .1-.4.4.7 0 1.1-.4 2-.3-.4.3.5 0 .3.2a1.3 1.3 0 01-.6.1h.1c1.5.1.5-.3 1.3-.5s.7.2.7.4a1.9 1.9 0 00.9 0c-.6.1-1-.2-.8-.4.4.3 1.3 0 1.6-.1-1.2-.3-.9 0-2.1-.4-.2.1-.1.4-.9.3.5-.2 0-.2-.1-.2.1.1-.5 0-.8.1s.5-.4-.3-.4v.4c-.4 0 0-.3-.6-.2.3-.3 0-.4.7-.4-1-.4-1.5.2-2.2.3l.1-.1a1.6 1.6 0 01-.7.1c-.5 0 .4-.2.3-.3H200l.5-.3-.9.2c.1 0-.7-.2 0-.3h-1.3l-.1-.2c-.3 0-.3 0 0 0-.5 0-2 .6-1.7 0a20.5 20.5 0 01-2.6.4c1-.3-1-.4 0-.5-.7 0-.8.2-1.2.2s-.3-.3.2-.4h-.6l-.4.2c-.5-.1-.1-.2-.6-.3l-.2.3-.3-.2c.1.1-.2.2-.6.2h-.4c.4-.1-.4 0-.2-.2h-1.1l.1.2c-.9 0 0-.3-.8-.3V2c-1-.3-1.8.2-2.6 0 .5 0 .4-.3.4-.2a13.3 13.3 0 00-2.5.2c-.3-.3-.3-.3-1-.5-.6 0-.7 0-.8.2l-1.5-.1-.8.1v.1c-.9-.4-1.5.2-2.4-.1h.1-.4l.1-.2h-1.7l.3.1a2.8 2.8 0 01-1 0c.7-.2-.6 0-.7-.2h.3c-.5 0-.5 0-.4.2-.7 0-.5-.3-1.1-.1h.4c.1 0-.2.2-.5.2 0 0-.2 0 0-.1h-1.5c-.3 0-.2-.2 0-.3l-1.7.2v-.1h-.4l-.5-.1.2.1a5 5 0 01-1 0l.1-.1c-1 0-1.2-.3-2.2 0l.1-.2c-1 .3-.7-.2-1.6 0v-.1h-.4V1l-.4.3-.3-.2h-.1c-.5-.4-1.1 0-1.7-.4l.2.5c-1.6.5-3.6-.3-5.5 0V1l-.8.2c-.4-.1.2-.2.1-.3-.8.2-.3.3-1.3.4-.5-.1.2-.1.4-.2a13.4 13.4 0 01-3 0 16.6 16.6 0 01-2 0h.3a1.7 1.7 0 00-.7 0l.2-.2-1.6-.1s0 .2-.4.2c-.3-.3-1.3.2-2 0h.5a1.9 1.9 0 00-1 0h.1l-1.7.1c-.2-.3-1.5 0-1.4-.2-.6 0 .5.2-.3.2L140 1h-.5l.4-.3a.9.9 0 00-.8.5c-.5-.1-1 0-1.3-.2h.2c-1.3 0-2-.6-3-.3h.1-.7l.2-.2-1.3.2h-3c-1.1.1-1-.2-1.9 0h-.6l.1-.2c-.5.3-1.6-.3-1.2 0a3 3 0 00-1 .3c-.8 0-.2-.2-.7-.3a7.6 7.6 0 01-1.5.1h-1.1.1c-.8.3-1-.3-1.7.2-.4 0-1 0-1-.2l-3 .2c-.1-.3-.2 0-.8-.1v.2c-1.5 0-3.2-.5-4.9-.4V.3l-.3.2-5.5-.2a5.8 5.8 0 01-2 .3h.2a26.1 26.1 0 01-4 0V.4c-.3.2-.8 0-1 0l.3.1a1.4 1.4 0 01-1.3-.1l-.6.2h-.2l-.3-.2a3.6 3.6 0 00-1.3.3s-.6-.1-.2-.2h-2.3l.4.1c0 .2-.7.3-1 .2.4-.1 0-.2-.2-.4-.3.1.3.2.1.3a3.3 3.3 0 01-1.4.1h.2L89.4.6c-.5 0-.8 0-.7.3-.7 0-.3-.2-.5-.2a2.1 2.1 0 01-1.4-.2c-.3.5-1.8-.1-2 .3l-.5-.3c0 .2-.1.4-.6.4s-.3-.3-.4-.4L83 1C80.5.5 77.3.8 74.6.4a40.6 40.6 0 01-4.2.3h.2L69.2.6l1 .1a5.8 5.8 0 01-.8.1 26.4 26.4 0 00-5.5-.1c-1.2.4-.8-.4-2 0l.2-.2A31.3 31.3 0 0059 1c.2-.4-.8 0-.7-.2V1l-1-.3-.5.2V.7A6.7 6.7 0 0154 .1a45.5 45.5 0 01-7 .2 5 5 0 01-1.6.1L45 .2a4 4 0 01-1.6.2 5 5 0 00-1.6.2c-.6 0-1.2-.2-1-.4 0 .4-1.2 0-1.2 0S9-.7 1.5 1.3c-.2.2-.9.3-.6.5-.6 0-.8-.2-.9 0 .7 0-.2.4.5.7H0c0 .1.6-.2.5 0l.2-.3a1.3 1.3 0 01.7.3c.3-.2.5-.6 1.4-.4h-.3c.7 0 .4.2.6.2l.5.2c-.4-.1-1 .2-.7.1.8.1-.2 0 .4 0 .3 0 .2 0 .2.2h.7c0 .2-.5 0-.2.2l.9-.2c.1.4.9-.2 1.3.2-.6 0 0 .1 0 .2h1.5l-.2.1h.6c.1 0 1.1 0 1 .2 1.1.2.5-.3 1.5-.2.1.2-.8 0-.4.2h1a.6.6 0 01-.5.2c2.6.2 4 1 6.4.8.4.2-.2.2-.4.3 1.7-.3 2.4.4 4 .4V5a54.6 54.6 0 006.9.4h-.3a5.3 5.3 0 011.2-.3s-.3.3.4.3c-.1 0-.4-.1-.3-.2 2 .4 6.3.3 9.6.5 4.5-.1 9.3.2 13.7 0-.6 0-.4-.3.2-.2 1.3.7 2.4-.1 3.8.3 2.5-.2 4.8.4 7.2-.1v.2a2.3 2.3 0 00.9 0h2.4v-.3c.5 0 .2.2.8 0v.1l.6-.2c0 .4 1.5 0 2 .2a20.1 20.1 0 013-.2 9.3 9.3 0 002.2.3h5.8v-.2h.5c.4.4 1.2 0 1.6.2-.3-.3-.4 0-.7 0s0-.4.6-.3h.4c0 .1.4.2.4.4 1.7 0 3-.4 4.7-.3-.2.2 1.2 0 .9.3 1-.1-.2-.3.3-.5h.7s.2.2 0 .2h.7l-.2.1c1.5-.2 2.6.2 3.9 0 0-.1-.5 0-.4-.2 1.2-.2 1.1.3 2.3 0l-.2.2a1.7 1.7 0 011.2-.1c.2.2-.5.1-.8.3.4 0 1.5 0 1.2-.3a2 2 0 011 .2s-.5-.2-.2-.3a22.5 22.5 0 002.8.2v.1c.6-.2.6.3 1.5.2z"/>
</svg>
