<svg xmlns="http://www.w3.org/2000/svg" viewBox="0 0 300 28" fill="none">
  <!-- Audio waveform: bell-curve amplitude envelope — flat at edges, peaks at centre -->
  <path d="M0,14 L14,14 Q17,12 20,14 Q23,16 26,14 Q29,11 32,14 Q35,17 38,14 Q41,9 44,14 Q47,19 50,14 Q53,7 56,14 Q59,21 62,14 Q65,5 68,14 Q71,23 74,14 Q77,3 80,14 Q83,25 86,14 Q89,2 92,14 Q95,26 98,14 Q101,2 104,14 Q107,26 110,14 Q113,3 116,14 Q119,25 122,14 Q125,5 128,14 Q131,23 134,14 Q137,7 140,14 Q143,21 146,14 Q149,9 152,14 Q155,19 158,14 Q161,11 164,14 Q167,17 170,14 Q173,12 176,14 Q179,16 182,14 Q185,13 188,14 L300,14"
    stroke="currentColor" stroke-width="2.2" stroke-linecap="round" fill="none"/>
</svg>
