<?xml version="1.0" encoding="UTF-8"?>
<svg xmlns="http://www.w3.org/2000/svg" version="1.1" viewBox="0 0 1931.35 164.68"><path fill="currentColor" d="M35.19,103.78c-3.79.15-5.89-.49-6.39-2-.55-1.64,2.05-2.52,5.4-2.83,6.83-.64,13.71-1.23,20.59-1.57,31.36-1.45,62.72-2.86,94.09-3.88,22.45-.85,44.9-1.39,67.35-2,11.22-.34,22.45-.53,33.67-.79L283.58,90l52.28-.89,52.28-.6q32.5-.24,65-.29l35.78.14,17.89.09,17.88.17,30.14.29,30.14.43,30.13.45,30.14.61L677.5,91l32.25.77,16.13.39,16.12.49,32.25,1c35.43,1.27,70.84,3,106.25,4.73,12.38.56,24.77,1.24,37.15,1.87l37.16,1.79,176.12,8.64c26.54,1.28,53.13,2.34,79.69,3.46l79.77,3,33.3,1.08c11.09.35,22.19.76,33.3,1l33.32.84,16.66.44c5.55.15,11.11.19,16.67.3l35,.6,17.5.3,17.51.09c23.35.11,46.7.42,70.06,0,8.52-.08,17,0,25.55,0a26.07,26.07,0,0,0,7.38-.86c-3.32-.13-6.63-.36-10-.38l-32.63-.24-16.32-.09-16.31-.2-33.11-.2c-5.52-.05-11,0-16.56-.12l-16.54-.28c-22.07-.41-44.14-.61-66.18-1.36l-28.81-1-14.41-.5-14.39-.55-47.21-1.55L1237,112.81,1214.4,112l-22.64-.94-45.26-1.87c-25.1-1.08-50.25-1.84-75.32-3.23l-77.65-4.42-38.82-2.22-38.81-2c-18.66-1-37.32-1.88-56-2.76s-37.32-1.65-56-2.4l-24-.93-24-.8-24-.77c-8-.26-16-.42-24-.62-10.21-.24-20.41-.38-30.62-.53s-20.42-.2-30.62-.42l-28.25-.61-28.24-.51-28.25-.5-28.25-.31c-15.54-.13-31.08-.25-46.62-.19l-46.62.06-30.62,0H394.52l-15.3.13q-31.1.36-62.19,1c-12.23.21-24.47.14-36.7.41-28.24.77-56.48,1.56-84.72,2.64-45.82,1.59-91.62,3.74-137.42,5.9-8.44.44-16.93.53-25.36.6-1.77,0-4.25-.59-4.91-1.23a27.12,27.12,0,0,1-5.11-6.39c-1.15-2.15.4-3.1,6-3.74s11.24-1,16.88-1.32c10-.55,20-1,29.93-1.47l29.93-1.4c20-.91,39.92-1.64,59.88-2.42,16.51-.58,33-1,49.52-1.53s33-.78,49.53-1.2q60.36-1.38,120.73-1.92,49.06-.31,98.12,0,62.28.26,124.52,1.4c12.1.16,24.2.48,36.3.71s24.2.46,36.3.83l52.28,1.55L785,80.35l52.79,1.91c27.31,1.26,54.61,2.5,81.91,4l99.75,5.43c32.33,1.71,64.69,3.14,97,4.65l37.22,1.72L1191,99.7c24.82,1.13,49.65,2.06,74.48,3,14.92.62,29.85,1,44.78,1.52l22.4.72c7.46.26,14.93.52,22.39.7l58,1.7,58,1.15c15.08.18,30.17.17,45.26.26l22.64.11,22.63-.21q12-.09,24.06-.06h18l6-.11c2.73-.06,5.46-.26,8.19-.4l.22-.71c-2.22-.16-4.43-.47-6.67-.45-8.86.14-17.74-.08-26.6-.15l-26.6-.28-13.3-.13-6.65-.07-6.65-.15-26.6-.53c-11.46-.22-22.93-.17-34.4-.26s-22.95-.23-34.42-.43c-10.22-.2-20.43-.31-30.65-.61l-30.64-.91-30.64-.92-30.63-1.14c-13.67-.53-27.34-.9-41-1.47l-41-1.58L1143,94.69q-44.29-1.95-88.57-4.1L1024.57,89l-29.88-1.7L964.82,85.5l-29.88-1.69-43.75-2.55c-14.58-.8-29.17-1.59-43.76-2.28-12.4-.61-24.82-1-37.23-1.38L773,76.39c-14.76-.47-29.5-1.35-44.26-1.76-11.63-.26-23.26-.41-34.89-.57l-34.88-.53c-21.38-.38-42.74-1.27-64.11-1.63l-29.22-.51c-9.74-.16-19.48-.21-29.22-.31-28.61-.33-57.22-.37-85.83-.42l-50.94.2c-17,.1-34,.34-50.94.51-11.64.09-23.27.33-34.91.52l-34.91.6-34.91.81-17.46.41L209,74.22c-12.25.37-24.5,1-36.75,1.44l-40.07,1.67-20,.85-20,1L62,80.8c-10.05.58-20.09,1.26-30.13,1.9-10.73.69-14-.38-14.61-4.62-.49-3.69-1.69-7.33-2.44-11-.7-3.4-1.22-6.81-1.92-10.76-9.51-1.72-6.32-6.25-7-10-.35-1.86,1-3.85,1.71-6.16,3.77-.36,7.38-.83,11-1l23.89-1.48q11.94-.77,23.89-1.43c15.93-.87,31.86-1.75,47.8-2.47q28.65-1.17,57.32-2.13l57.33-1.64c19.88-.45,39.76-1,59.65-1.38L318.32,28c9.94-.17,19.88-.34,29.82-.41,15.71-.14,31.41.05,47.32.14-2.43,3.28.29,4.86,6.66,3.9,11.2-1.69,22.38-.37,33.53-.57a64.71,64.71,0,0,0,9.9-.57,48.15,48.15,0,0,1,18.31-.12,24.8,24.8,0,0,0,7.12.17,62.13,62.13,0,0,1,13.71-.09c9.72.87,19.77,1.57,29.87.32a39.44,39.44,0,0,1,6.52,0c12.21.61,24.34,1,36.72.5,6.69-.25,13.64.91,20.51,1.06,8.78.2,17.59,0,26.4,0,2.45,0,4.92.15,7.37.3,4,.23,8.91,1.28,12,.72,9.54-1.75,19-.14,27.71.5,10.47.79,20.48.08,30.57.55,21.68,1,43.27,1,64.91,1.14,5.53,0,11.12.95,16.72,1.2,17.9.76,35.66,2.49,53.76,2,8.59-.22,17.46.42,26.2.8a17.82,17.82,0,0,1,4.3.86,20.44,20.44,0,0,0,11.43.31c3.11-.85,6.23-.53,9.83-.19,8,.73,15.91,1.84,24.24,1.31a43.3,43.3,0,0,1,11.12.69c6.66,1.52,13.55,1.15,20.17,1.81,14.44,1.46,28.72-.26,43.14,1.76,5.54.78,11.82.37,17.76.47,5.17.08,10.3-.65,15.49,1,1.4.43,4.25-.11,6.42,0,6.14.37,12.28.86,18.42,1.27a110.26,110.26,0,0,0,12,.66,66.58,66.58,0,0,1,16.61,1.17,47.24,47.24,0,0,0,13.78.68c5.85-.48,11.6-1,18.14.61a36.9,36.9,0,0,0,12.69.43c9.81-1.81,20.06-.82,29.61-.59.79,1.36.64,2.83,2.32,3.49s5.15.5,7.72.42,5.27-.49,7.88-.78a8.29,8.29,0,0,0,2.23-.39c-.35-1.94,2.73-2.13,6-1.64,2.62.38,5.35.36,7.65,1.93,3,2,9.22,1.64,15.12,1.64L1175.54,54c12.63.57,24.94-.07,37,2.74-1.4,0-2.79,0-4.19,0s-2.88-.07-5.27-.14c2.64,1.89,5.88,2.31,9.33,2.44,3.11.11,6.3.23,9.32.06,8.33-.45,16.39-.67,24.63,1.29a16.52,16.52,0,0,0,10-1c4.5-1.82,4.49-1.66,10.32.16,2.08.65,6.32,2.15,6.38-.64,3.6.25,8.07,0,10.65.83,10,3.13,21,3.44,32.24,3.49,9,0,18,.17,27,.42,13.69.33,27.45.31,41,1.18a165.82,165.82,0,0,0,20.91.35c5.48-.31,11.61.79,17.46.92,11.78.27,23.58.22,35.36.48,9.3.21,18.58.74,27.86.9l39.66.89c5.2.11,10.42.4,15.62.34,11.13-.17,22.26-.46,33.39-.7,2.17,0,4.45.11,6.51-.11,4.25-.46,8.48-.85,12.73-1a91.47,91.47,0,0,1,12.79.48,9,9,0,0,0,2.75-.1,52.09,52.09,0,0,1,17.18-1.19c5.85.48,12.24.13,18.4,0l15.21-.43c2.54-.09,5.08-.13,7.6-.25l7.59-.34q15.64-.6,31.28-.91l21.75-.34,21.7-.67a55.54,55.54,0,0,1,7.93.41c3.45.39,6.55.93,10.61,0a16.24,16.24,0,0,1,6,0c4.81,1.15,9.62.74,15-.08a64.26,64.26,0,0,1,10.87-.63c7.38.31,8,.89,7.16,4.22-.19.77-.26,1.54-.42,2.52-2.74.62-5.56,1.45-8.53,1.87a12,12,0,0,1-5.21-.44c-2.79-1.38-5.46-1.06-8.72.1-3,1.08-6.15,2.07-9.18,3.13-4,1.39-3.67,3.36.9,3.85,2.79.3,6.07.08,9.13.08,4.19,0,8.39,0,13.49-.18a15.07,15.07,0,0,1-4.15,2.18,29,29,0,0,1-4.8,1.1c-3.32.52-6.78.74-9.83,1.33a18.21,18.21,0,0,0,7.57,3,38.73,38.73,0,0,0,4.77.56c.83,0,1.69.07,2.56.07s1.74,0,2.63-.11c5.91-.38,11.75.07,18.23.17-4.68,3.68-14.51,1.68-18.65,5.35l27.15.09c-.35,1.54-3.64,2-6.53,2.42-4.94.71-10,1.25-14.94,1.88-3,.36-6.06.82-9.1,1.1l-9.12.93L1766.28,100c-12.17,1.22-24.34,2.52-36.53,3.64-5.92.45-11.92.55-17.89.85a31,31,0,0,0-8.2,1.26l16.35-.58,8.18-.28,4.09-.15,4.08-.24,32.67-1.87,16.35-.93c5.44-.32,10.9-.57,16.33-1.07L1834.34,98l.13.5-21.74,3.73c3.62,1.34,7.1.33,10.13.14a92.75,92.75,0,0,1,9.74-.38c-17.92,3.21-36.87,4.17-54.25,7.76l.14.86c6.78-.33,13.57-.56,20.36-1l20.34-1.41.07.94-14.66,1.7-7.33.85-7.34.68-29.37,2.69.08,1c8.26-.17,16.53-.52,24.81-1,4.15-.23,8.29-.46,12.44-.75l12.43-1.11c16.58-1.49,33.21-3,49.9-3.74-.87.18-1.73.4-2.63.54-1.24.19-2.5.33-3.76.46-10.38,1-20.67,2.41-31,3.77l-15.48,2c-5.17.63-10.36,1.28-15.59,1.62-13.87,1-27.71,2.45-41.55,3.88l-10.39,1.06c-3.46.34-6.92.73-10.39,1-6.93.52-13.87,1-20.82,1.39-12.77.71-25.57,1.18-38.37,1.58-12.8.21-25.6.22-38.39.37l-27.73.21-27.7-.32c-18.47-.24-36.94-.23-55.39-.56l-38.12-.31-9.53-.06-9.53-.17-19.05-.31-38.09-.61-38.07-1-20.09-.58c-6.69-.2-13.38-.49-20.07-.74l-40.14-1.49-65.13-2.46-50-1.91q-25-.93-49.92-2c-32.66-1.44-65.29-2.81-97.9-4.62q-30.56-1.65-61.08-3.52l-61-3.42c-21.59-1.13-43.19-2-64.8-2.94L781.68,98l-56.89-1.8c-26-.61-52.06-1-78.08-1.36q-44.7-.93-89.39-1.67c-7.53-.08-15.07.1-22.6,0L504.36,93,474,92.93c-10.12,0-20.24-.08-30.36,0L413.26,93q-60.24.33-120.47,1.66c-12.16.21-24.31.57-36.46.86s-24.31.59-36.46,1c-24.3.8-48.6,1.49-72.89,2.52-10.66.42-21.32.95-32,1.48s-21.3,1.17-32,1.65c-8,.35-16,.59-23.92.81ZM307.3,31.92a55.46,55.46,0,0,0,6.89.87c9,1,18.46-2.4,27.39.05.76.21,2.85-.41,4.36-.58,1.79-.21,3.63-.46,5.45-.49,6.88-.11,13.75-.16,20.63-.2,3.37,0,6.25-.31,7.56-2.68-12.92.32-25.06.37-37.08,1C330.81,30.44,318.73,29.79,307.3,31.92Zm-17.76.42a4.29,4.29,0,0,0,1.28.36,4.38,4.38,0,0,0,1.26-.48l-1.71-.49ZM1033.47,62c-1.9-.28-3-.53-4.15-.61l-45.16-2.83c-19.74-1.22-39.52-2.23-59.3-3.33-12.87-.7-25.71-1.6-38.59-2.25l-9.45-.44c-14.46-.76-28.91-1.63-43.38-2.35l-43.4-2c-12-.52-23.95-.83-35.92-1.19l-35.94-1L675.23,44.8l-42.94-1c-17-.44-34-.73-51-1.1-1.88,0-3.74-.27-5.62-.34-6.58-.22-13.16-.57-19.75-.6l-35-.21-17.49-.09H485.93l-24.13-.1c-8-.05-16.09-.1-24.13-.08-21.08,0-42.16-.14-63.25.11-17.33.19-34.66.4-52,.79-21.05.42-42.11.77-63.16,1.34-12,.29-24,.39-35.92.84-15.75.66-31.48,1.79-47.24,2.32-17.24.6-34.53.6-51.76,1.38-14.9.65-29.83,1.34-44.76,2.16-7.47.43-14.94.91-22.4,1.52s-14.92,1.41-22.37,2.35C57.4,53,80,52.29,102.57,51.26l47.08-2.36c10.69-.51,21.52-1.37,32-1.13,13.66.27,27.77-1.19,41.07.57a38.63,38.63,0,0,0,5.54-.11l16.82-.5c3.75-.13,7.49-.35,11.23-.53,4-.2,8.09-.55,12.11-.57,11-.07,22,.27,33,.17,14.11-.11,28.23-.68,42.35-.78,25.19-.17,50.36-.19,75.54-.22l56.59-.51c1.24,0,2.49.13,3.74.17,5.91.19,11.82.51,17.74.53,15.76,0,31.53,0,47.29.17,15.43.13,30.86.47,46.29.77l23.14.44,23.14.54,36.35.73,36.35.94c7.14.21,14.24.88,21.38,1.13,9.11.34,18.25.39,27.38.61l29.72.78,29.71,1c5,.16,10,.45,15,.74,4.68.27,9.34.75,14,1l36.75,1.47c13.8.6,27.57,1.52,41.35,2.27,3.77.2,7.55.3,11.32.47,9.95.44,20,1.92,29.82.58,1.49-.21,3.66.28,5.53.44,8.41.67,16.81,1.44,25.25,2,8.74.58,17.52.92,26.28,1.41C1027.29,63.61,1030.76,63.65,1033.47,62Zm241.75,11.46,0-.82c-75.42-3.55-151-6-227-9.66a29.91,29.91,0,0,0,3,.62q17.16,1.75,34.35,3.42a36.84,36.84,0,0,0,4.52-.24c3.65-.14,7.31-.48,11-.31,12.48.56,25,1.34,37.44,2,7.81.4,16.33,0,23.25,1.24,11.18,2.11,21.56,1,32.1,1.13,6.28,0,12.29.14,18.55.69,10.48.94,21,1.89,31.52,2.22S1264.78,73.59,1275.22,73.46Zm67.38,2.86c-5-1.56-8.25-1.89-19-2.08-6.55-.12-13.15-.46-19.65-.38s-13.18-1.7-19.15.29a59,59,0,0,0,9.77.7c9.32-.21,18.37-.24,27.77,1.16A67.44,67.44,0,0,0,1342.6,76.32Zm-549.87,7v.5l5.93.26-.17-.7ZM390,81.94l-47.45.73-47.44,1c4.4.75,26.45.62,48.24.23S386.7,82.78,390,81.94ZM1589.65,117.6c-14.32-1-28.68-1.69-43.07-1.65-8.34.08-16.68-.1-25-.15l-25-.17c-8.35-.07-16.69,0-25-.18l-25-.49-29.74-.62c-5-.09-9.91-.25-14.87-.42l-14.86-.48c-19.81-.67-39.63-1.17-59.43-2-22.79-.84-45.58-1.51-68.35-2.46l-68.33-2.62-38.4-1.48-38.39-1.56c-25.59-1.09-51.17-2.29-76.74-3.84-16.46-1-32.92-1.88-49.38-2.78S955.05,95,938.6,94.13l-48.92-2.51-48.92-2.3c-29.79-1.26-59.56-2.8-89.37-3.64-9.34-.28-18.68-.58-28-.78l-28-.57-28-.52-28-.4-33.87-.64c-14.74-.25-29.49-.64-44.23-.75-20.4,0-40.81.28-61.21.2L454.31,82l-45.66,0c-2.6,0-5.21.15-7.82.23l0,.81c3.61.06,7.23.15,10.85.15,16.93.06,33.86,0,50.8.12l47.05.33,47,.56,112,2.13,37.43.8,18.71.43,18.71.56,37.4,1.25q18.7.74,37.39,1.62L948,97.25c60.56,3,121.12,6.3,181.75,9.21,45.81,2.2,91.67,3.76,137.54,5.36l62.22,2.14c14,.58,28,1,42,1.46s28,1,42,1.29l35.9.64c12,.18,23.92.51,35.9.48l35.92.15,18,.07,18-.2Z" transform="translate(0.66 -8.53)"></path><path fill="currentColor" d="M1930.7,135.4l-4.23,1.55c-2.09.79-5.39,1.55-6,2.39-2.94,4-10.38,4.51-17.69,5.66l-21.38,3.4-10.69,1.72c-1.78.28-3.56.6-5.35.84l-5.35.72-42.83,5.81a11.56,11.56,0,0,0-4.44,1.38l18.47-.19L1813,161.05c-6,.78-12,1.63-18,2.19L1759.31,167l-23.53,2.36c-7.84.58-15.69,1.1-23.54,1.46q-20.22.94-40.43,1.67c-13.45.29-26.9.42-40.34.58l-22.32.17c-3.72,0-7.43,0-11.14-.07l-11.13-.15c-14.84-.21-29.67-.4-44.51-.44-11.64-.11-23.26-.23-34.9-.21s-23.29,0-34.92,0l-52.93-.94c-4.41-.09-8.83-.13-13.22-.26l-13.2-.38-26.4-.75-24.27-.66-24.22-.8-38.45-1.22-38.37-1.4-45.44-1.62-77.9-3.05-77.68-3.3q-22.83-1-45.57-2.28l-45.5-2.51L882,149.54c-22.44-1.08-44.88-2.25-67.33-3.13l-29.21-1.22-29.22-1.06-29.22-1-29.22-.8-25.53-.62-25.52-.42c-17-.27-34-.55-51.06-.72-17.64-.21-35.28-.54-52.92-.65s-35.28-.39-52.92-.37q-57.15-.15-114.29.52c-15.3.21-30.61.32-45.91.62l-45.9.94L229,143.32l-54.77,1.94c-13.73.49-27.46,1-41.2,1.41l-41.18,1.17c-12,.3-24-.54-36-.82-5.14-.12-8.41-1.25-9.67-3.29s-2.72-3.87-3.39-5.87c-.87-2.58,1-3.59,7.44-4.13,5.59-.48,11.25-.64,16.86-1a47.49,47.49,0,0,0,8.35-1.33c-6-1.35-12.62-1-19-1-2.17,0-4.38.19-6.57.25-6.89.18-8.8-.42-9.08-2.83s1.83-3.58,8-4.06c13.38-1.07,26.78-2.06,40.19-2.68,26.75-1.27,53.52-2.2,80.28-3.22l40.15-1.24,20.08-.59,20.08-.47c49.16-1.25,98.33-1.68,147.5-2.07l51.18-.21,51.18.13q48.33.38,96.62,1.31l19,.35,19,.48c12.64.3,25.29.55,37.93.68,13.79.21,27.44.44,41.15,1.35,6.41.44,13.05,0,19.59.1,19.69.24,39.27,1.86,59.09,1.59,8.67-.12,17.73,1.48,26.62,2.28,2.69.24,5.84.84,8,.52,10.87-1.62,21.69-.33,32.16,1.07A180.22,180.22,0,0,0,893,124.6a94.59,94.59,0,0,1,20.35,1.33c10.17,1.68,11.61,1.81,20.34.49,3.5,2,3.5,2,20.48,2.11l-4.63-.88c5.36-.29,9.63-.29,14.49,1s10.85,2.63,16,.23c.93-.43,4.11-.09,6.25,0,3.74.2,7.47.48,11.21.74,2.25.15,5.53-.28,4.88,1.54l11.46,1,.23-.52-3-1a18.15,18.15,0,0,1,3.57-.34c11.15,1.81,22.33.74,33.47,1.45,4.69.3,9.49.48,11.23,2.82,3.52-.38,8-1.33,9.07-.88,6.25,2.55,11.9,1.82,18.06.92,1.51-.23,3.69.23,5.56.27l24.41.51c2.47.06,5,.2,7.43.37a35.35,35.35,0,0,0,3.66.45c9.21-.67,18.51.85,27.74.87,11.89,0,23.63.45,35.67,1.3,10.68.73,20.78,3.63,33.84,2.49l-11-.93-.09-.51c1.72-.11,3.43-.38,5.15-.32q13.21.42,26.42,1c1.75.08,4.74.38,5,.75.81,1.24,2.24,1.89,5.18,1.8s5.9-.3,8.81-.51c2-.15,4.82-.82,5.65-.52,4.38,1.63,7.82.39,11.87.3a281.84,281.84,0,0,1,30.08,1.08l-4.5.89a4,4,0,0,0,1.06.36c2.84.11,5.79.38,8.49.21,1.84-.11,3.22-1.21,5-1.25,6.25-.12,12.58-.08,18.88.11l55.86,1.4c4.39.12,8.83.45,13.16.86a98.38,98.38,0,0,0,17.76.11c5.63-.51,11.9,0,17.88.06l20.8.35,14.18.39c1.57,0,3.16.26,4.69.2,11.83-.49,23.67-.58,35.5-.5,5.92,0,11.84.12,17.76.21l17.79,0c6.64,0,13.31-.63,19.94-.64,8.4,0,16.79.06,25.19.13s16.81-.14,25.22-.27c11.72-.2,23.46-.76,35.19-1,3.18-.09,6.35-.09,9.53-.24l9.54-.38,19.07-.76,19.08-.76,9.54-.4c3.18-.13,6.36-.26,9.54-.5a320.71,320.71,0,0,1,32.26-1,21.16,21.16,0,0,0,5.6-.44c4.66-1.26,9.09-1,13.87-1,3.54-.07,7.1-.12,10.65-.27l10.67-.58,21.38-1.23c3.48-.19,7-.16,10.43-.45l18.59-1.6c3.11-.24,6.2-.64,9.29-1l9.28-1.14c9.84-1.24,19.65-2.76,29.49-4.09,3.06-.42,6.16-.64,9.25-1l.1.84-47,6.64c-7.84,1.2-15.71,2-23.55,2.93l-23.54,2.87L1801,144.15l-23.61,2.69-23.62,2.81L1742,151.1c-3.94.49-7.88,1-11.82,1.37l4.16-.14,4.17-.23,8.33-.47,16.68-.94,33.35-2c2.79-.15,5.59-.42,8.38-.67l8.39-.75,16.77-1.55,33.54-3.18C1886.06,139.93,1908.06,136,1930.7,135.4Zm-549.87,10.89v.16l4.17,0v-.15ZM161.94,128.12l-.06-.32-11.58.69.07.32Zm624.18,14.79-.16-.45-7.83-.06.21,1Zm88.38,3.29,0-.19-3.92-.07,0,.2Zm85.93,4.69v-.48l-9.25-.45,0,.71Zm166.77,7.27-43.29-1.27v.35l43.24,1.27Zm108.54,4.43,0-.23-18.61-1v.81Zm92.54,2.66L1288.46,164q-10-.3-19.91-.72l-19.9-.77v.43c12.55.55,25.07,1.19,37.65,1.67L1324,166c1.25.05,2.5,0,3.74,0a1.38,1.38,0,0,0,.71-.22C1328.58,165.71,1328.41,165.56,1328.28,165.25Zm26.84,1c-4.64-.05-9.28-.05-13.91-.14l-.93.06c4.93.1,9.89.09,14.84.15Zm52.36,1.79-11.14-.76-.17.84,11.22.41Zm16.79.29,0-.12-5,0,0,.12Zm97.89.42-5.29.09v.25h5.18Zm82.47-12.58-.18-.66c-18.4-.29-36.78-.72-55.18-.86l-40.93-.22-35.71-.17-35.65-.58c-29.19-.31-58.27-1.22-87.38-2-14.54-.44-29-1.37-43.54-1.82q-36.51-1.11-72.9-2.41L1197.24,146c-22.61-.77-45.26-1.21-67.82-2.16-19.15-.79-38.34-2-57.46-3l-45.65-2.18c-15.21-.71-30.4-1.39-45.58-2.21L886,131.19l-29.92-1.61q-31.82-1.67-63.67-2.79c-18.43-.67-36.88-.74-55.32-1.27l-28.38-.68-28.38-.66c-18.92-.44-37.85-.69-56.77-1-13.76-.25-27.53-.31-41.3-.46l-20.65-.21L541,122.35,510.51,122c-10.16-.14-20.33-.16-30.49-.2l-32.37,0-32.37.18q-30,0-60.07.4c-19.06.2-38.11.89-57.16,1.25q-58.62,1.23-117.21,3.1c-2.61.08-5.22.27-7.83.41l.06.76,8.84-.18c17.81-.53,35.62-1.23,53.43-1.6q59.57-1.3,119.13-1.8l37.07-.42,37.07-.2q103.71-.12,207.39,2.07c15.09.34,30.18.54,45.27,1l45.27,1.1,45.27,1.37c15.08.43,30.16,1.08,45.25,1.63l19.56.77,19.56.9,39.12,1.87,78.31,4.18c41,2.2,82.08,4.42,123.23,6.3,23.75,1.06,47.45,2.07,71.25,2.93l71.39,2.61c19.26.68,38.48,1.5,57.78,2.08l28.93,1c9.64.32,19.28.68,29,.89l30.41.82,15.2.41c5.07.15,10.14.29,15.22.35,20.32.33,40.62.73,60.94,1l54.36.13c9,.08,18.14-.15,27.21-.24l27.22-.37Zm253.84-9.94c-6.55-.46-6.55-.46-10,1.89Zm23.87-2.33-.19-1-6,.85,0,.73Zm22.42-3.39-.15-.81-9.62,1.38.19.79Z" transform="translate(0.66 -8.53)"></path><path fill="currentColor" d="M36.9,119.57a6.78,6.78,0,0,1-.85-5.93c.18-.61,4.4-1.53,6.88-1.71,15.3-1.11,30.63-2,46-2.72,10.81-.51,21.61-1,32.42-1.44l32.43-1.19,17.87-.64,17.87-.54,35.74-1q95-2.37,190-2.86l33.87-.09,33.86.14c22.58,0,45.15.37,67.73.56,20.37.2,40.75.58,61.13.85L673,104.22c21.14.59,42.28,1.08,63.41,1.76l31.7,1,15.85.53,15.85.63c36.62,1.38,73.2,3.1,109.82,4.89,46.65,2.27,93.32,4.9,140.07,7.31,37,1.89,74.09,3.4,111.17,5,26.41,1.1,52.79,2.27,79.23,3.23l33.54,1.28c11.18.45,22.39.75,33.58,1.15l31.21,1.06c10.4.38,20.83.56,31.25.85,20.83.53,41.66,1.16,62.53,1.38l26.54.39,13.28.19c4.42.07,8.86,0,13.29.06q26.57,0,53.15.25l35.38-.18,17.69-.07c5.9,0,11.79,0,17.7-.15l35.41-.7c11.81-.27,23.61-.35,35.43-.92l33.77-1.32,16.89-.65c5.63-.21,11.25-.64,16.88-.95l33.78-2,16.89-1,16.88-1.42c2.49-.21,5-.35,7.48-.52l.17,1-19.18,2.23-4.79.55-4.8.45-9.6.88.1.72c14.43-.7,28.83-2.12,43.25-3.27l21.62-1.81c7.21-.62,14.43-1.14,21.62-2l.36.76a49.12,49.12,0,0,1-5.43,1.39c-2.8.42-5.62.67-8.43,1l-8.43.95L1832.21,130l-33.75,3.75-33.78,2.91-16.9,1.43-8.46.71c-2.81.23-5.63.49-8.45.64q-16.9,1-33.84,1.92l-16.94.81c-5.64.25-11.28.53-16.92.58l-33.34.48-16.67.2-8.33.1-8.32,0-33.29-.19-16.64-.06-8.33,0-8.31-.13c-27.86-.46-55.79,0-83.63-.68l-29.43-.52-7.35-.14-7.35-.22-14.69-.43-29.38-.84-14.69-.41-14.67-.49c-23.67-.8-47.36-1.38-71-2.28l-35.45-1.26c-11.83-.41-23.61-.94-35.42-1.43l-38.7-1.65L1109.53,131q-38.67-1.8-77.23-3.74l-139-7.27c-46.93-2.14-93.85-4.33-140.8-5.71l-25.83-.74L700.78,113l-51.68-.94c-31.63-.64-63.26-1.26-94.9-1.66-18.64-.14-37.28-.32-55.92-.38L442.36,110l-31,0c-10.34,0-20.67-.07-31,.07-20.65.26-41.31.76-62,1.21l-39,.66-39,.84c-12.83.26-25.66.73-38.49,1.18L171,115l-31,1.31-23.21,1-23.21,1.15c-15.47.8-30.94,1.5-46.4,2.43C42.9,121.12,38.22,121.49,36.9,119.57Zm1448,17.87v.34l43.88.43.33-.83Zm-41.49-.26c7.91.22,15.9,1.22,23.66-.08Zm-70.56-1.59,17.14,1,.29-.86Zm-36-1.23c6,.53,14.39,1.78,22.84.68C1351.28,134.25,1342.87,134.45,1336.87,134.36Zm-32.68-.83.3.55,4.94-.22ZM1229,130.37c10.69,1.44,21.28,2.16,31.81,2.54s21,.47,31.5.5v-.9c-10.56-.28-21.11-.66-31.65-1Zm-27.63-.93.06.61,15.09.4,0-.61ZM1159.69,128c18.34,2.09,25.8,2.18,30,.82Zm-19.64-.4,4.6.13.11-.52-4.61-.51Zm-49.43-2.45.34.45,27.26.8,0-.44Zm-43.66-2c7.76.62,15.49,2.69,23.25.93C1062.43,123.2,1054.61,122,1047,123.15ZM404.63,104.9c17.83,0,35.65-.11,53.47,0l53.47.25,46.06.27c46.33.6,92.66,1.37,139,2.67,13.1.38,26.2.76,39.3,1.22,5,.17,10,.2,15,.29,6.87.12,13.76.09,20.61.38,12.94.49,25.87,1.22,38.81,1.86l38.8,1.92c10.11.5,20.23.91,30.36,1.3l15.19.6,15.18.72q34.73,1.75,69.43,3.73l35.68,1.86c1.78.09,3.56,0,5.35,0-51.31-3.38-102.58-6.5-153.84-8.91-25.63-1.29-51.27-2.27-76.92-3.28-12.82-.51-25.65-.87-38.48-1.3s-25.65-.83-38.48-1.12l-38.49-1-38.49-.7-19.25-.34-19.25-.22-38.5-.4c-25.67-.09-51.34-.32-77-.2l-38.5.11Z" transform="translate(0.66 -8.53)"></path><path fill="currentColor" d="M8.46,34.91c6.55-.58,13.09-1.3,19.67-1.72,10.52-.66,21-1.33,31.56-1.91l31.57-1.71,17.95-1c5.91-.35,11.82-.71,17.74-1,3.75-.17,7.52-.2,11.28-.32,13.47-.44,26.94-1,40.42-1.33q12.56-.39,25.1-.88c4.64-.19,9.67-1.05,13.79-.64,6,.59,11.7.24,17.68.06,6.79-.19,13.54-1.26,20.53-.43a27.54,27.54,0,0,0,8.84-1,18.5,18.5,0,0,1,7.87-.67c8.35,1,16.86.33,25.34-.23,1.83-.12,4.34-.66,5.38-.36,5.18,1.5,10.54.51,16.29.15a14.46,14.46,0,0,0-6-2.51c-6.19-.87-6.32-.74-5.06-3.74,3.19-.61,6.54-1.05,9.37-1.82,4.59-1.25,8.83-2.71,13.17-4.07-11,0-22.55,0-34.11.16-17.71.29-35.4,1.06-53.1,1.52-17.37.42-34.74.73-52.1,1.34-10.1.37-20.19.72-30.28,1.21l-30.26,1.44q-31.74,1.39-63.48,3.21c-9.77.54-19.53,1.22-29.29,1.94L9.07,22.69c-4.38.31-8.42.81-8.89,3a23.26,23.26,0,0,0-.8,6.58C-.42,34.94,1.87,35.49,8.46,34.91Z" transform="translate(0.66 -8.53)"></path><path fill="currentColor" d="M130.25,104.59q19-.82,38.09-1.5l38.1-1.19q29.63-1.05,59.27-1.75l17.64-.4L301,99.47l35.28-.58c17.57-.22,35.14-.59,52.71-.73q48.45-.19,96.88.15c16.78,0,33.56.22,50.35.37l25.17.22,25.17.34,27.05.37,27,.49,27.05.5,27,.63,34.34.8,34.33,1c18.64.59,37.28,1.43,55.92,2.21s37.27,1.7,55.9,2.55c19.42.85,38.84,1.93,58.27,2.91l29.14,1.5,29.15,1.59c34.47,1.84,69,4,103.51,5.58q27.09,1.27,54.18,2.28l54.24,2c17.3.71,34.64,1.25,52,1.91l26,1,26,.85c19.23.64,38.44,1.42,57.69,1.9l28.87.82,14.43.42,14.45.26,53.07.77c17.71,0,35.42.11,53.11.34,11.14.23,22.29.11,33.44.19l33.45.16,8.36,0,8.37-.1,16.74-.21,33.48-.51,5.05-.09,5-.19,10.09-.44,20.2-.95,20.2-1,10.1-.54,10.09-.74,45.55-3.4,5.69-.43,2.85-.22,2.84-.29,11.37-1.14,22.74-2.28-.18-.62c-4.41.39-8.83.83-13.24,1.18l-22.78,1.84-22.79,1.3-22.79,1.28-11.4.64-5.69.31c-1.9.12-3.8.21-5.7.26L1682,127.6c-5.22.16-10.44.39-15.66.48s-10.44.18-15.66.31l-31.3.87-15.65.44-15.64.14-34.1.09-17,0q-8.52-.06-17,0-13,0-26-.06l-13-.11-6.5-.07-6.5-.14c-17.34-.38-34.68-.71-52-.65-5.35,0-10.7-.08-16-.21l-16.07-.48c-10.72-.35-21.44-.75-32.16-1l-60-1.78c-10-.27-20-.65-30-1l-30-1.09c-2.2-.08-4.39-.25-6.59-.36-12.57-.57-25.1-1.37-37.65-1.88l-52.77-2-27.13-1c-4.39-.17-8.78-.54-13.18-.76l-81.81-4.06-48.88-2.66c-16-.81-31.93-1.33-47.86-2.21l-41.25-2.31c-13.75-.73-27.49-1.51-41.25-2.11l-40.88-1.56c-13.63-.52-27.27-.82-40.91-1.24l-69.5-2c-11.59-.36-23.18-.55-34.77-.77S624,98,612.4,97.94c-16,0-32-.52-47.94-.83-13.8-.23-27.6-.47-41.4-.6-16.77-.19-33.55-.18-50.33-.2l-25.17,0-25.17.07q-75.76,0-151.52,1.31c-12.38.24-24.77.57-37.15.9l-37.14,1.12c-26.65.7-53.28,1.6-79.92,2.43-6,.21-12,.64-17.85.65-19.89,0-39.37,2.08-58.89,4-3,.29-6.41.53-6.23,2.86,3.53-.16,6.82-.26,10.11-.46,14.4-.89,28.81-1.65,43.21-2.44S115.83,105.18,130.25,104.59Z" transform="translate(0.66 -8.53)"></path><path fill="currentColor" d="M1227.64,37.61l0-.6c3.88.09,7.79.06,11.66.29,9.65.58,19.28,1.37,28.93,1.88,4.63.24,9.29,0,14,0a87.22,87.22,0,0,1,9.22.44c5.38.66,10.59,1.81,16,.57a5.39,5.39,0,0,1,1.83,0c8.25,1.79,16.5.56,24.73.8,3.41.11,6.82.47,10.24.61,6.81.3,13.6.43,20.41.6,4.65.11,9.31.06,14,.2l21.36.83c13.06.51,26.06.7,39.08,1s26,.62,39.06.82c7.44.06,14.88,0,22.32-.07,3.1,0,6.33-.26,9.28,0,14.77,1.35,29.63.38,44.38.24,23.48-.12,47-.15,70.44-1.05l29.13-1,7.28-.26c2.43-.08,4.85-.16,7.27-.3l14.52-.68q16.59-.69,33.2-1.16l8.3-.24,4.15-.13,4.14-.2,16.55-.82c12.25-.6,24.49-1,36.73-1.39a31.39,31.39,0,0,1,6,.43c-7.27,1.91-10.89,5.52-20.26,6.38-5.68.52-13.11,1.53-14,5.31-.16.69-4,2-6.08,2.06a61,61,0,0,0-14.87,2.66,21.87,21.87,0,0,1-6.9,1.07c-6.87-.88-11.84.49-16.77,2.4-.9.35-2.14.54-3.85,1-3.66-3.28-10-3.5-17.64-2.11a25.76,25.76,0,0,1-4.6.17c-3.41-.08-5-.76-3.45-2.29a10.29,10.29,0,0,1,.93-.71c2.06-1.54,4.67-3.28,1.6-4.69-3.34-1.53-8.26-1.17-12.88-.31a34.34,34.34,0,0,1-11.5.21,52.24,52.24,0,0,0-24.59,2.26c7.21,2.86,14-.18,20.48,0,3.43.07,6.89.18,10.4.13l10.84-.13c-.74,1.78-1.32,3.14-2.07,4.91-3.4.05-6.37.16-9.3.14-9.08-.2-17.79-1.63-27.33-.63-3.93.41-13.63-1-16.18-1.94.88-.46,1.85-.91,2.68-1.4s1.57-1,2.52-1.7a43.47,43.47,0,0,0-13.14-1.69c-4,0-8-.16-12,0-9.47.19-19,.71-28.4.51-6-.14-11.47.47-17.19.84a65,65,0,0,1-15.3-.65,119.84,119.84,0,0,0-13.68-1.61,62.82,62.82,0,0,0-14.28.87,21.54,21.54,0,0,1-4.52.25c-7.66-.31-15.29-.8-23-1a68.93,68.93,0,0,0-12.17.57,30.07,30.07,0,0,0-10,3c-5.83,3.06-9.24,2.7-15.78-.63a33.72,33.72,0,0,0-17.84-3.41c-6.35.38-12.8.57-19.23.73a35.31,35.31,0,0,1-5.37-.55,168.37,168.37,0,0,0-21-1.72c-6.94-.07-14.32.33-21.1-1.3a13.28,13.28,0,0,0-4.46-.29c-5.6.93-10.73.3-16.28-.59-3-.47-6.7-.16-10,0a91,91,0,0,1-15.6-.52,128.44,128.44,0,0,0-20.28-.63,97.13,97.13,0,0,1-15.27-.54c-4.94-.55-9.79-1.31-14.73-1.94-2.31-.29-5.44-.86-7-.49-8.33,2-18.37.43-27,1.5a9.89,9.89,0,0,1-2.09-.56c.87-.94,1.76-1.93,2.9-3.17Zm465.64,12.72,9.11-.09C1698.33,48.41,1698.34,48.41,1693.28,50.33Z" transform="translate(0.66 -8.53)"></path><path fill="currentColor" d="M347,21.52l-12.68-2.87,1.88-2.07c2.13.36,3.81.6,5.38.92,3.14.64,6.11.71,8.44-.59,2.15-1.19,1.94-2.41-.19-3.56-1.82-1-3.58-2-6-3.38l20.72-.75L358.33,11c4.3,1.77,8.78-.1,12.77.34,3.83.42,7.84.58,12.47.9.27-1.19.45-2,.76-3.39,14.59-.14,29.2-.14,43.82-.22l21.93-.06L472,8.6c28.93,0,57.86.45,87.14.78l1.91,2.51c3.15.15,6.09.1,8.75.44a23.22,23.22,0,0,0,12.77-1.43,16.33,16.33,0,0,1,5.64-1.06c7.47,0,14.94.26,24.4.46-2.43,1-3.28,1.65-4.3,1.69-7.79.27-13.3,1.43-12.64,5.06a32.28,32.28,0,0,1-14.58-1.21c-7.59-2.13-21.35-1.47-28,1.48,2.54.38,4.73.75,7,1,1.19.14,2.56,0,3.76.17,4.5.5,8.93,1.38,13.46,1.51,4,.11,7.87-1.61,13.33-.37-4.53,2.06-8.66,3.65-16,3a61.85,61.85,0,0,0-9.12.09c-7.19.42-14.28.82-21.45-.2a41.27,41.27,0,0,0-6.33-.15c-3.14.06-6.29.43-9.37.33-8.84-.28-11.73-1.9-10.53-5.78-6.25-1-11-.55-15.75,1.64-9.72,4.49-17.29,4.69-29.66,1.27-3.08,1.71-7.65,2.15-14.62,1.4-4.86-.52-5.63-1.1-6.28-5.28-6.11.31-12.33.45-18.21,1.11-4.67.53-4.39,2.25-2.35,4.34l-11.53.34c-11.58.33-12.56.13-17-4.21-1.38-1.35-2.22-2.69-6.71-2.7s-8.2.35-9.76,2.38a4.26,4.26,0,0,1-1.43.87Zm66.33-4.68.72.62,4.66-.95-.72-.61Zm-20-6.77,1.2.34,1.43-.38a8.73,8.73,0,0,0-1.58-.43C394.05,9.58,393.6,9.9,393.24,10.07Z" transform="translate(0.66 -8.53)"></path><path fill="currentColor" d="M915.73,22.78c3.5-1.28,6.8-1.28,11-.24a64.81,64.81,0,0,0,20.13,1.81c5.64-.38,11.3,0,15.92,2a10.31,10.31,0,0,0,8.88,0c4.82-2.62,10.74-2.17,17.55-.81,3.1.62,7.15,1.45,9.79,1.13,6.06-.74,11.7.13,17.52.6,2.15.17,4.68.8,6.35.57,5.12-.73,8.44.61,12,1.78,2,.65,3.87,1.38,4.71,1.69,8.06-.67,14.8-1.6,21.8-1.69,5.66-.08,13,.11,17.17,1.5,6.45,2.17,12.64,2.52,19.47,2.51,9.16,0,18.08.26,25.89,3.4.24.7.54,1.6.84,2.5a8.75,8.75,0,0,0,4.65-2.29c1.54-1.43,4.18-2,8.15-1.65,8.85.79,17.67,1.68,23.54,3.84l30.88-.85c1,.81,1.53,1.28,2,1.75,3,2.68,3.57,2.83,9.12,1.18a24.66,24.66,0,0,1,9.6-.52c4.43.42,8.6.3,10.65-2.18-4.74-1.07-9.22-2.85-13.61-3-9.1-.28-18-1.32-26.95-1.73-8.74-.41-17.49-.74-26.24-1.07l-26.29-1.11c-8.74-.41-17.47-1.14-26.21-1.69-19.36-1.2-38.83-2.3-58.21-3.62-4.34-.3-7,0-8,1.4-4.11-.81-7.48-1.86-11-2.1-11.61-.79-23.27-1.31-34.91-1.91l-26.85-1.35-26.9-1.26-45.33-2.22c-2.31-.1-4.64.06-7,.1,5.32,1.16,10.28,1.95,14.58,3.76C904.24,24.53,911.76,24.24,915.73,22.78Z" transform="translate(0.66 -8.53)"></path><path fill="currentColor" d="M762.69,16a94.58,94.58,0,0,1,12.79-.25c4,.34,3.64,2.19,4.53,3.57s6.42,2.66,10,2.4c8.45-.64,17.23-1,25.13-2.2a27.34,27.34,0,0,1,13.48.77c1.47-3,.71-3.71-4.19-4.24-3.37-.37-6.87-.57-10.33-.69l-25.92-.89-25.93-.71c-2.19,0-4.4,0-6.57.06a23.13,23.13,0,0,0-3.07.59L756,17.09A65.88,65.88,0,0,1,762.69,16Z" transform="translate(0.66 -8.53)"></path><path fill="currentColor" d="M784.53,23.14c-2.63-.35-5.34-.81-6.13.53-.29.49,1.81,1.57,3.4,1.93,9.42,2.15,19.61,2.14,29.58,1.94,4-.08,5.42-1.43,2.52-3.19C803.87,25.69,794.16,24.49,784.53,23.14Z" transform="translate(0.66 -8.53)"></path><path fill="currentColor" d="M725.08,19.55c10.87.67,12.49-4,22-5.24-9.54-1.62-9.35-1.56-13.52.41a45.7,45.7,0,0,1-7.07,2.16C723.67,17.62,722.52,18.4,725.08,19.55Z" transform="translate(0.66 -8.53)"></path><path fill="currentColor" d="M735,22.55c-5.64-.3-10.59-.38-15.44-.76-6.86-.55-7.83-.29-8.94,3.2,5.5,0,11,.09,16.43,0C730.54,24.85,733.26,24.11,735,22.55Z" transform="translate(0.66 -8.53)"></path><path fill="currentColor" d="M896.78,29.53c3.72,1.95,7.1,4.43,13.58,3.16a33.44,33.44,0,0,1,11.52-.24,43.69,43.69,0,0,0,5.83,0L927.8,31C917.52,30.32,907.07,30.74,896.78,29.53Z" transform="translate(0.66 -8.53)"></path><path fill="currentColor" d="M873.74,22.8l2.69-4.11-16.15-1.27-.82.83C866.69,18.47,865.13,22.63,873.74,22.8Z" transform="translate(0.66 -8.53)"></path><path fill="currentColor" d="M875.28,29.08c-6.22-4.63-13.4-.71-20-.93C865.74,30.5,871,30.67,875.28,29.08Z" transform="translate(0.66 -8.53)"></path><path fill="currentColor" d="M650.57,24.62c7.19.48,7.19.48,10.72-3.32C651.93,20.57,650.45,21.06,650.57,24.62Z" transform="translate(0.66 -8.53)"></path><path fill="currentColor" d="M622,15.4c6.09-.56,11-1.26,15.91-3.14C630.14,10.71,625.39,11.65,622,15.4Z" transform="translate(0.66 -8.53)"></path><path fill="currentColor" d="M615.33,23c2.8,2.17,6.68,1,10.39.69-1.5-2.48-3.91-3.42-7.64-3C615,20.93,613.92,21.88,615.33,23Z" transform="translate(0.66 -8.53)"></path><path fill="currentColor" d="M642.06,18.51c3.49.77,7.24.92,10.26-1.28a73.86,73.86,0,0,0-7.79-1.35,35.94,35.94,0,0,0-5.65.51C639.92,17.12,640.53,18.17,642.06,18.51Z" transform="translate(0.66 -8.53)"></path><path fill="currentColor" d="M976.44,35.14c1,.58,1.83,1.48,3.13,1.68,4.5.71,8.57.47,12.15-1.59-4.51-.34-8.1-.69-11.68-.83A15.27,15.27,0,0,0,976.44,35.14Z" transform="translate(0.66 -8.53)"></path><path fill="currentColor" d="M490.38,28.3l0-.76-22.05,0C475.17,29.39,482.81,28.27,490.38,28.3Z" transform="translate(0.66 -8.53)"></path><polygon fill="currentColor" points="1423.61 55.43 1423.57 54.61 1412.24 54.65 1400.9 54.57 1400.95 54.66 1412.29 55.1 1423.61 55.43"></polygon><path fill="currentColor" d="M1185.67,48.74c4.34-.06,7-.43,8.27-2.2C1189,46.13,1186.7,46.7,1185.67,48.74Z" transform="translate(0.66 -8.53)"></path><polygon fill="currentColor" points="1321.88 52.48 1337.34 52.73 1337.4 52.24 1321.81 51.98 1321.88 52.48"></polygon><polygon fill="currentColor" points="1297.88 51.65 1306.61 51.79 1306.54 51.11 1297.95 50.97 1297.88 51.65"></polygon><path fill="currentColor" d="M954.62,33.25c-.17.17,1.34.67,2.79,1.36,1.09-.88,2.08-1.42,2.34-2,.09-.22-1.54-.63-2.39-.95A13.86,13.86,0,0,0,954.62,33.25Z" transform="translate(0.66 -8.53)"></path><path fill="currentColor" d="M327.16,13.61l3.6,1.34c1.09-.78,2.2-1.26,2.28-1.75,0-.25-2-.8-2.67-.71A13.84,13.84,0,0,0,327.16,13.61Z" transform="translate(0.66 -8.53)"></path><path fill="currentColor" d="M1407.07,52c-.49-.52-.67-1.2-1.58-1.53a31.23,31.23,0,0,0-4.94-.56c1.07.93,1.32,1.57,2.13,1.75A31.43,31.43,0,0,0,1407.07,52Z" transform="translate(0.66 -8.53)"></path><path fill="currentColor" d="M689,16,679,16.47C682.62,18.41,685.12,17.73,689,16Z" transform="translate(0.66 -8.53)"></path><path fill="currentColor" d="M1102.6,42.78l6-.29-.62-1C1105.83,41.2,1103.71,40.89,1102.6,42.78Z" transform="translate(0.66 -8.53)"></path><polygon fill="currentColor" points="1913.68 94.17 1913.63 93.97 1903.8 95.38 1903.86 95.57 1913.68 94.17"></polygon><polygon fill="currentColor" points="847.71 9.01 840.83 8.39 840.52 9.16 847.38 9.82 847.71 9.01"></polygon><path fill="currentColor" d="M596.37,21.81a12.26,12.26,0,0,0,2.2.88l1.22-1-2.09-.66C597.22,21.32,596.22,21.71,596.37,21.81Z" transform="translate(0.66 -8.53)"></path><path fill="currentColor" d="M616.67,13.92a13.37,13.37,0,0,0-2.6-.3c-.62.12-.88.54-1.3.83a8.46,8.46,0,0,0,2.13.4C615.53,14.77,615.9,14.35,616.67,13.92Z" transform="translate(0.66 -8.53)"></path><polygon fill="currentColor" points="726.88 4.83 726.83 4.5 719.9 4.5 720.19 4.84 726.88 4.83"></polygon><path fill="currentColor" d="M753.11,19.21l-1.4-.78c-.4.14-1.19.31-1.13.41a4.74,4.74,0,0,0,1.08.86Z" transform="translate(0.66 -8.53)"></path><polygon fill="currentColor" points="1057.19 26.77 1061.11 26.89 1061.07 26.4 1057.15 26.29 1057.19 26.77"></polygon><path fill="currentColor" d="M1690,62.26l1.45.54,1.45-.59a9.41,9.41,0,0,0-1.74-.41A4.19,4.19,0,0,0,1690,62.26Z" transform="translate(0.66 -8.53)"></path><path fill="currentColor" d="M772,19.08l1.08.8,1.37-.43c-.26-.2-.46-.52-.82-.56A7.43,7.43,0,0,0,772,19.08Z" transform="translate(0.66 -8.53)"></path><path fill="currentColor" d="M1070.29,35.62s.25-.19.37-.29c-.48-.1-1-.22-1.45-.29,0,0-.24.19-.37.29C1069.32,35.43,1069.79,35.54,1070.29,35.62Z" transform="translate(0.66 -8.53)"></path>
</svg>