<svg width="951" height="262" version="1.1" xmlns="http://www.w3.org/2000/svg" desc="Created with imagetracer.js version 1.2.6" ><path fill="currentColor" stroke="currentColor" stroke-width="1" opacity="0.32941176470588235" d="M 740.5 31 L 744 33.5 L 745 41.5 L 727 76.5 L 720 96.5 L 705 128.5 L 699 148.5 L 699 169.5 L 701 176.5 L 706.5 183 L 714.5 186 L 719.5 186 Q 720.7 183.8 725.5 185 L 731.5 181 Q 741.6 179.1 748.5 174 Q 771.3 159.8 789 140.5 L 795.5 133 L 800.5 132 L 804 134.5 L 805 139.5 L 803 144.5 L 793 155.5 L 790 165.5 L 791 168 Q 795.3 171 804.5 170 L 805.5 169 L 816.5 168 L 820.5 166 L 825.5 166 L 833.5 163 L 838.5 163 Q 842.7 167.1 843 174 L 862.5 176 L 863.5 175 L 879.5 175 L 883 177 L 885.5 181 L 901.5 178 L 907.5 174 L 910.5 174 L 912 176.5 L 911 181.5 L 906.5 188 L 891.5 194 L 875.5 194 L 868.5 192 L 855.5 192 L 854.5 191 L 841.5 190 Q 832.9 188.1 828 182.5 L 827.5 181 L 812.5 181 L 811.5 182 Q 801.2 180.7 794.5 183 L 781.5 178 L 778 174.5 L 776.5 172 L 773.5 172 L 758.5 184 L 743.5 192 L 723.5 198 L 709.5 198 Q 699.2 195.3 693 188.5 L 689.5 184 L 684.5 191 L 665.5 203 L 660.5 203 L 644.5 209 L 625.5 210 Q 614.7 208.3 610 200.5 L 607.5 196 L 593.5 197 L 585.5 193 L 582.5 193 L 562.5 203 L 551.5 205 L 542.5 205 Q 534.2 202.9 530 196.5 L 526.5 191 L 510.5 203 L 500.5 208 L 495.5 209 L 493.5 211 L 482.5 213 L 479.5 215 L 464.5 216 L 452 208.5 L 448 198.5 L 450 187.5 L 464.5 172 L 477.5 163 L 500.5 153 L 509.5 151 L 519.5 151 L 530 159.5 Q 527.8 160.8 530.5 162 L 536 150.5 L 540.5 146 Q 547.3 144.3 549 147.5 L 550 152.5 L 539 176.5 L 539 185.5 L 542.5 191 L 550.5 192 Q 568.6 188.9 580 180 L 582 175.5 L 583 166.5 L 586.5 162 L 594.5 160 L 599 163.5 L 600 171.5 L 598 174.5 L 597 182.5 Q 598 185 602.5 184 L 607 180.5 L 608.5 178 L 617.5 175 L 621 177.5 L 622 179.5 L 622 190.5 L 625.5 194 L 633.5 196 L 640.5 196 L 655.5 193 L 674.5 186 L 677.5 186 L 685.5 181 L 688 181 Q 688.9 174.4 686 170.5 L 686 149.5 L 693 123.5 L 700 111.5 L 713 76.5 L 724 55.5 L 723.5 54 Q 726.1 54.8 725 51.5 L 738.5 32 L 740.5 31 Z M 739 33 L 728 49 L 719 67 L 717 74 L 714 78 L 704 105 L 702 107 L 701 113 L 693 127 L 687 151 L 687 167 L 688 168 L 687 170 L 689 176 L 689 181 L 694 189 L 710 197 L 724 197 L 743 191 L 758 183 L 773 171 L 777 170 L 778 173 Q 782 179 792 181 L 811 181 L 822 179 Q 826 178 828 180 Q 830 179 829 182 Q 834 187 842 189 L 857 190 L 858 191 L 870 191 L 877 193 L 892 193 L 906 187 L 910 181 L 910 175 L 906 178 L 886 183 L 883 182 L 882 179 L 878 176 Q 871 174 870 177 L 855 177 L 854 176 Q 845 177 841 175 Q 842 167 838 164 L 805 171 Q 796 172 791 169 L 788 166 L 791 156 L 803 143 Q 805 136 802 134 Q 796 133 794 136 L 789 143 L 788 143 L 768 162 L 745 178 L 723 187 Q 711 189 706 184 L 699 174 L 698 160 L 697 159 L 697 153 L 700 139 L 710 113 L 721 91 L 724 80 L 744 42 L 743 35 Q 742 32 739 33 Z M 542 147 L 539 148 L 532 162 L 531 169 L 529 168 L 530 166 L 528 160 L 518 152 L 504 153 L 499 155 L 479 164 L 464 175 Q 461 174 462 177 L 457 180 L 450 192 Q 448 203 453 208 Q 457 213 466 215 L 478 214 L 498 208 L 506 203 L 509 203 L 523 192 Q 525 193 524 191 L 527 189 L 531 197 Q 535 203 544 204 L 562 202 L 584 191 L 595 196 L 609 195 L 612 202 L 622 208 L 627 209 L 648 207 L 660 202 L 665 202 Q 679 196 688 186 L 687 182 L 681 186 L 643 197 Q 631 198 625 195 L 620 189 Q 619 184 621 183 L 619 177 L 611 178 L 609 181 Q 606 185 600 186 L 595 183 Q 595 176 598 174 Q 600 165 596 162 L 588 163 L 583 170 L 582 179 L 575 185 L 556 193 L 544 193 L 542 192 L 537 183 L 538 176 L 544 165 Q 545 156 549 151 L 548 148 L 542 147 Z " /><path fill="currentColor" stroke="currentColor" stroke-width="1" opacity="0.32941176470588235" d="M 125.5 40 L 135.5 40 L 146 45 L 149 50.5 L 150 65.5 L 146 84.5 L 143 90.5 L 142 99.5 L 132 131.5 L 123.5 143 L 119 145 L 120 137.5 L 124 128.5 L 125 120.5 L 135 88.5 L 139 65.5 L 139 58.5 L 135.5 54 Q 130 55.5 128.5 53 Q 114.9 59.4 105 69.5 L 81 102.5 L 65 127.5 L 57 143.5 L 51 162.5 L 47 182.5 L 47 204.5 Q 49.4 214.1 55.5 220 L 71.5 226 L 79.5 226 L 95.5 223 L 111.5 218 L 119.5 214 L 122.5 214 L 138 206 Q 136.3 202.6 137 195.5 Q 140.2 186.2 147.5 181 Q 150.1 181.8 149 178.5 L 150 173.5 L 152.5 171 L 160.5 166 L 169.5 165 Q 172.8 167.8 173 173.5 L 169 187.5 L 157 207 L 174.5 206 Q 185.6 202.6 192 194.5 Q 198 188.5 196 174.5 L 194 163.5 L 191.5 161 L 172.5 157 L 162 150.5 L 161 142.5 L 163.5 139 L 172.5 135 L 186.5 139 L 195.5 147 L 208.5 148 L 216.5 145 L 235.5 143 L 237.5 143 Q 248.6 141.4 253 146.5 L 256 151.5 L 256 170.5 L 252 190.5 L 252 196.5 L 253.5 196 L 261 189.5 L 269 177.5 L 272 167 L 277.5 165 L 283 167.5 L 285 174.5 L 282 180.5 L 279 198 L 283.5 198 L 295.5 194 Q 306.2 189.2 313 180.5 L 322 170.5 L 323 166.5 L 328.5 159 L 331.5 158 L 338 162.5 L 344 171.5 L 341 169.5 L 339 166.5 L 333.5 160 Q 329 159 328 161.5 L 323 171.5 L 311.5 184 L 308.5 186 L 301.5 192 L 291.5 197 L 288.5 197 L 282.5 200 L 278 200 L 277 197.5 L 281 178.5 L 283 175.5 L 283 170.5 L 280.5 167 Q 273.3 165.8 272 170.5 L 271 176.5 L 268 182.5 L 254.5 198 L 250 199 L 254 176.5 L 253 174.5 L 255 165.5 L 254 162.5 L 255 159.5 L 254 156.5 L 254 154.5 L 254 150.5 L 252 147 L 245.5 144 L 240.5 144 L 239.5 145 L 218.5 146 L 210.5 149 L 197.5 149 L 181.5 138 L 170.5 137 L 162 142.5 Q 161.4 150.6 166.5 153 L 175.5 157 L 182.5 157 Q 185.4 159.6 191.5 159 L 194 161.5 L 196 165.5 L 196 172.5 L 198 180.5 Q 195.3 182.2 197 188.5 L 188.5 200 L 175.5 207 L 159.5 209 L 155 206.5 Q 153.9 203.2 156.5 204 L 161 199.5 L 168 186.5 L 171 178.5 L 171 169.5 L 170 167 L 164.5 166 L 152 173 L 150 182 L 143 186.5 L 138 196.5 L 139 200.5 L 138.5 202 Q 142.3 203.3 141 199.5 Q 142.2 196.3 146 197 L 143 204 L 139 205 Q 140.1 207.7 137.5 207 L 123.5 215 L 120.5 215 L 102.5 222 L 83.5 227 L 71.5 227 L 55.5 221 L 51 216.5 L 46 206.5 L 45 192.5 L 46 191.5 L 46 178.5 Q 49.8 171.8 50 161.5 L 57 140.5 L 82 98.5 L 108.5 64 Q 117.5 56.5 129.5 52 Q 130.8 54.3 135.5 53 L 139 55.5 Q 141.5 59 140 66.5 L 139 67.5 L 138 79.5 L 136 84.5 L 136 89.5 L 131 107.5 L 129 110.5 L 129 114.5 L 127 117.5 L 126 125.5 L 123 131.5 L 121 142 L 127 137.5 L 132 128.5 L 132 124.5 L 135 119.5 L 139 102.5 L 141 99.5 L 142 89.5 L 147 75.5 L 149 57.5 Q 146.8 56.2 148 51.5 L 143.5 45 Q 138.2 39.8 126.5 41 L 118.5 44 L 102 57 L 102 59 Q 99.3 57.9 100 60.5 L 88 72.5 L 84 80.5 L 74 92.5 L 64 107.5 L 48 138.5 L 46 147.5 L 42 154.5 L 42 158.5 L 38 171.5 Q 38 181 35 187.5 L 35 201.5 L 40 219.5 L 50.5 230 L 61.5 235 L 83.5 236 L 107.5 231 L 109.5 229 L 130.5 222 L 141.5 215 L 146.5 215 Q 152.8 220.7 166.5 219 L 176.5 217 Q 180.1 212.6 187.5 212 L 200 200.5 Q 207.5 192.5 207 176.5 Q 204.5 175 206 169.5 L 203 162.5 L 208.5 158 L 232.5 155 L 234.5 156 Q 236 153.5 241.5 155 L 245 157.5 L 244 176.5 L 238 199.5 L 238 210.5 Q 240.1 216.8 249 215 Q 247.9 212.3 250.5 213 L 262.5 204 L 268 203 L 268 206.5 L 270 210 Q 273.8 211.8 281.5 211 L 297.5 206 L 315.5 195 L 323 187.5 L 324.5 184 L 327 182.5 L 330.5 177 Q 335.5 176.5 336 180.5 Q 341.3 186.7 342 197.5 L 334 213.5 L 332 221.5 L 334.5 225 L 339.5 224 L 346 217.5 L 351 209.5 L 354 197.5 L 358 191.5 L 358 188.5 L 362 183.5 Q 361.4 178.1 363 176 L 359 177 L 354.5 185 Q 350.8 186.3 352 182.5 L 347 175.5 L 348 175.5 L 353.5 182 Q 355.8 182.8 355 180.5 L 358 179 L 360.5 175 L 364.5 173 L 364 174.5 L 365 177.5 Q 361.8 178.8 363 184.5 L 360 187.5 Q 359.7 193.7 356 196.5 L 352 210.5 Q 348 219.5 340.5 225 L 333 226 L 331 221.5 Q 333.2 208.7 340 200.5 L 340 191.5 L 335 181.5 L 331.5 178 L 326.5 185 Q 324.3 184.3 325 186.5 L 315.5 197 L 296.5 208 L 283.5 212 L 273.5 212 L 268 208.5 L 265.5 204 L 255.5 212 L 245.5 217 L 240 214.5 L 237 210.5 L 236 205.5 L 243 175.5 L 244 162.5 L 243 160.5 L 243 158.5 Q 243.8 155.9 240.5 157 L 238.5 157 L 215.5 158 L 207.5 160 L 205 162.5 L 208 174.5 L 208 185.5 Q 205.3 197.8 197.5 205 L 190.5 211 L 179.5 217 L 167.5 220 L 154.5 220 L 145.5 216 L 142.5 216 L 124.5 226 Q 112.9 227.4 105.5 233 L 79.5 238 L 78.5 237 L 64.5 237 L 56.5 235 Q 46.1 229.3 39 220.5 L 34 202.5 L 34 186.5 L 41 154.5 L 46 140.5 L 51 132.5 L 52 127.5 L 57 117.5 L 69 97.5 L 84 78.5 L 86 73.5 L 109.5 49 L 125.5 40 Z " /><path fill="currentColor" stroke="currentColor" stroke-width="1" opacity="0.32941176470588235" d="M 821.5 47 Q 828.3 45.3 830 48.5 Q 829.7 56.2 825.5 60 Q 820 67 805.5 65 Q 798.5 63.5 795 58.5 L 794 52.5 Q 797 49 803.5 49 L 805.5 50 L 808 48.5 Q 807.5 51.5 814.5 50 L 821.5 47 Z M 824 48 L 818 51 L 798 51 L 795 54 L 797 60 L 807 64 Q 817 65 823 61 Q 828 57 829 50 Q 828 47 824 48 Z " /><path fill="currentColor" stroke="currentColor" stroke-width="1" opacity="0.32941176470588235" d="M 416.5 67 Q 423.8 65.8 425 70.5 L 426 78.5 L 423 89.5 L 415 106.5 L 413 118.5 L 411 121.5 L 411 127.5 L 406 150.5 L 409 156.5 L 408 162 Q 410.7 163.1 410 160.5 L 418.5 149 L 432.5 141 L 448.5 129 L 456.5 125 L 464 124 L 464 126.5 L 455.5 137 L 431 157.5 L 421 170.5 L 413 189.5 L 408 198.5 L 403 203.5 L 402 208.5 L 396.5 215 L 392.5 214 L 389 215 Q 390 212 387 213 L 387 209.5 L 386 208.5 L 386 199.5 L 387 198.5 L 388 182.5 L 390 172.5 L 389 170.5 L 390 169.5 L 391 153.5 L 398 123.5 L 397 121.5 L 403 107.5 L 404 89.5 Q 407 86.5 407 80.5 L 414.5 68 L 416.5 67 Z M 418 68 L 416 69 L 409 80 L 404 100 L 405 104 L 405 107 L 399 120 L 394 151 L 392 155 L 391 175 L 389 184 L 389 197 L 387 202 L 388 212 Q 390 216 393 212 L 396 214 L 398 213 L 402 203 L 406 200 L 409 192 L 415 183 L 420 170 L 424 166 Q 423 163 426 164 L 426 162 L 430 156 L 455 136 L 461 129 L 461 126 L 459 126 L 442 135 L 434 142 L 417 153 Q 418 155 415 154 L 412 162 L 409 164 L 407 167 L 404 166 L 407 165 L 407 154 L 405 151 L 409 128 L 409 126 L 415 103 Q 422 92 425 78 L 424 72 Q 423 67 418 68 Z " /><path fill="currentColor" stroke="currentColor" stroke-width="1" opacity="0.32941176470588235" d="M 756.5 93 L 765.5 93 L 767 94.5 L 765 99 L 750.5 108 L 736.5 113 L 726.5 115 L 719.5 119 L 714 118 L 714 114.5 L 717 111.5 Q 716.4 106.4 719.5 105 L 743.5 95 L 755.5 94 L 756.5 93 Z M 757 94 L 750 96 L 745 96 L 722 105 Q 717 107 718 114 L 715 116 L 720 117 L 723 117 L 729 113 L 736 112 L 753 106 L 763 99 Q 766 98 765 94 L 760 95 L 757 94 Z " /><path fill="currentColor" stroke="currentColor" stroke-width="1" opacity="0.32941176470588235" d="M 513.5 162 Q 519 161 520 164.5 L 519 175.5 L 515.5 179 Q 513.3 178.3 514 180.5 L 500.5 191 L 492.5 194 L 479.5 203 L 465.5 204 L 461 200.5 L 460 197.5 L 463 189 Q 471.5 186.2 476.5 178 Q 484.3 176.3 488.5 171 L 493.5 170 L 500.5 165 L 513.5 162 Z M 515 163 L 502 166 L 490 172 L 487 175 L 477 180 L 469 188 L 465 189 L 462 198 Q 461 202 465 202 L 481 201 Q 488 194 499 191 L 510 183 L 518 175 L 519 166 Q 519 163 515 163 Z " /><path fill="currentColor" stroke="currentColor" stroke-width="1" opacity="0.32941176470588235" d="M 369.5 165 L 370 167.5 L 366.5 172 L 364 170.5 L 366 166 L 369.5 165 Z " /><path fill="currentColor" stroke="currentColor" stroke-width="1" opacity="0.32941176470588235" d="M 485.5 167 Q 489.3 166 488 169 Q 484.3 167.5 485 170.5 L 482 172.5 Q 481.5 167.5 485.5 167 Z " /><path fill="currentColor" stroke="currentColor" stroke-width="1" opacity="0.32941176470588235" d="M 403 168 L 406 169.5 L 403.5 173 L 403 168 Z " /><path fill="currentColor" stroke="currentColor" stroke-width="1" opacity="0.32941176470588235" d="M 395 181 L 397 181.5 L 397 188 L 395 187.5 L 395 181 Z " /><path fill="currentColor" stroke="currentColor" stroke-width="1" opacity="0.32941176470588235" d="M 393.5 205 L 395 208.5 L 392 210 L 393.5 205 Z " /><path fill="rgb(0,0,0)" stroke="rgb(0,0,0)" stroke-width="1" opacity="0" d="M 0 0 L 950.5 0 L 951 0.5 L 951 262 L 0.5 262 L 0 261.5 L 0 0 Z M 741 31 L 739 32 L 725 52 Q 726 55 724 54 L 724 56 L 713 77 L 700 112 L 693 124 L 686 150 L 686 171 Q 689 174 688 181 L 686 181 L 678 186 L 675 186 L 656 193 L 641 196 L 634 196 L 626 194 L 622 191 L 622 180 L 621 178 L 618 175 L 609 178 L 607 181 L 603 184 Q 598 185 597 183 L 598 175 L 600 172 L 599 164 L 595 160 L 587 162 L 583 167 L 582 176 L 580 180 Q 569 189 551 192 L 543 191 L 539 186 L 539 177 L 550 153 L 549 148 Q 547 144 541 146 L 536 151 L 531 162 Q 528 161 530 160 L 520 151 L 504 152 L 504 154 L 503 153 L 478 163 L 465 172 L 450 188 L 448 199 L 452 209 L 465 216 L 480 215 L 483 213 L 494 211 L 496 209 L 501 208 L 511 203 L 527 191 L 530 197 Q 534 203 543 205 L 552 205 L 563 203 L 583 193 L 586 193 L 594 197 L 608 196 L 610 201 Q 615 208 626 210 L 645 209 L 661 203 L 666 203 L 685 191 L 690 184 L 693 189 Q 699 195 710 198 L 724 198 L 744 192 L 759 184 L 774 172 L 777 172 L 778 175 L 782 178 L 795 183 Q 801 181 812 182 L 813 181 L 828 181 L 828 183 Q 833 188 842 190 L 855 191 L 856 192 L 869 192 L 876 194 L 892 194 L 907 188 L 911 182 L 912 177 L 911 174 L 908 174 L 902 178 L 886 181 L 883 177 L 880 175 L 864 175 L 863 176 L 843 174 Q 843 167 839 163 L 834 163 L 826 166 L 821 166 L 817 168 L 806 169 L 805 170 Q 795 171 791 168 L 790 166 L 793 156 L 803 145 L 805 140 L 804 135 L 801 132 L 796 133 L 789 141 Q 771 160 749 174 Q 742 179 732 181 L 726 185 Q 721 184 720 186 L 715 186 L 707 183 L 701 177 L 699 170 L 699 149 L 705 129 L 720 97 L 727 77 L 745 42 L 744 34 L 741 31 Z M 126 40 L 110 49 L 86 74 L 84 79 L 69 98 L 57 118 L 52 128 L 51 133 L 46 141 L 41 155 L 34 187 L 34 203 L 39 221 Q 46 229 57 235 L 65 237 L 79 237 L 80 238 L 106 233 Q 113 227 125 226 L 143 216 L 146 216 L 155 220 L 168 220 L 180 217 L 191 211 L 198 205 Q 205 198 208 186 L 208 175 L 205 163 L 208 160 L 216 158 L 239 157 L 241 157 Q 244 156 243 159 L 243 161 L 244 163 L 243 176 L 236 206 L 237 211 L 240 215 L 246 217 L 256 212 L 266 204 L 268 209 L 274 212 L 284 212 L 297 208 L 316 197 L 325 187 Q 324 184 327 185 L 332 178 L 335 182 L 340 192 L 340 201 Q 333 209 331 222 L 333 226 L 341 225 Q 348 220 352 211 L 356 197 Q 360 194 360 188 L 363 185 Q 362 179 365 178 L 364 175 L 365 173 L 361 175 L 358 179 L 355 181 Q 356 183 354 182 L 348 176 L 347 176 L 342 169 L 341 169 L 341 168 L 338 163 L 332 158 L 329 159 L 323 167 L 322 171 L 313 181 Q 306 189 296 194 L 284 198 L 279 198 L 282 181 L 285 175 L 283 168 L 278 165 L 272 167 L 269 178 L 261 190 L 254 196 L 252 197 L 252 191 L 256 171 L 256 152 L 253 147 Q 249 141 238 143 L 236 143 L 217 145 L 209 148 L 196 147 L 187 139 L 173 135 L 164 139 L 161 143 L 162 151 L 173 157 L 192 161 L 194 164 L 196 175 Q 198 189 192 195 Q 186 203 175 206 L 157 207 L 169 188 L 173 174 Q 173 168 170 165 L 161 166 L 153 171 L 150 174 L 149 179 Q 150 182 148 181 Q 140 186 137 196 Q 136 203 138 206 L 123 214 L 120 214 L 112 218 L 96 223 L 80 226 L 72 226 L 56 220 Q 49 214 47 205 L 47 183 L 51 163 L 57 144 L 65 128 L 81 103 L 105 70 Q 115 59 129 53 Q 130 56 136 54 L 139 59 L 139 66 L 135 89 L 125 121 L 124 129 L 120 138 L 119 145 L 124 143 L 132 132 L 142 100 L 143 91 L 146 85 L 150 66 L 149 51 L 146 45 L 136 40 L 126 40 Z M 822 47 L 815 50 Q 807 51 808 49 L 806 50 L 804 49 Q 797 49 794 53 L 795 59 Q 799 63 806 65 Q 820 67 826 60 Q 830 56 830 49 Q 828 45 822 47 Z M 417 67 L 415 68 L 407 81 Q 407 87 404 90 L 403 108 L 397 122 L 398 124 L 391 154 L 390 170 L 389 171 L 390 173 L 388 183 L 387 199 L 386 200 L 386 209 L 387 210 L 387 213 Q 390 212 389 215 L 393 214 L 397 215 Q 402 212 403 204 L 407 200 L 406 199 L 408 199 L 414 188 L 421 171 L 431 158 L 456 137 L 464 127 L 464 124 L 457 125 L 449 129 L 433 141 L 419 149 L 410 161 Q 411 163 408 162 L 409 157 L 406 151 L 411 128 L 411 122 L 413 119 L 415 107 L 423 90 L 426 79 L 425 71 Q 424 66 417 67 Z M 757 93 L 756 94 L 744 95 L 720 105 Q 716 106 717 112 L 714 115 L 714 118 L 720 119 L 727 115 L 737 113 L 751 108 L 765 99 L 767 95 L 766 93 L 757 93 Z M 370 165 L 366 166 L 364 171 L 367 172 L 370 168 L 370 165 Z " /><path fill="rgb(0,0,0)" stroke="rgb(0,0,0)" stroke-width="1" opacity="0" d="M 514.5 163 Q 518.5 162.5 519 165.5 L 518 174.5 L 509.5 183 L 498.5 191 Q 487.6 194.1 480.5 201 L 464.5 202 Q 461.5 201.5 462 197.5 L 465 189 L 468.5 188 L 476.5 180 L 486.5 175 L 489.5 172 L 501.5 166 L 514.5 163 Z " /><path fill="rgb(65,58,66)" stroke="rgb(65,58,66)" stroke-width="1" opacity="0.8196078431372549" d="M 738.5 33 Q 742.3 32.3 743 34.5 L 744 41.5 L 724 79.5 L 721 90.5 L 710 112.5 L 700 138.5 L 697 152.5 L 697 158.5 L 698 159.5 L 699 173.5 L 705.5 184 Q 711 188.5 722.5 187 L 744.5 178 L 767.5 162 L 787.5 143 L 789 143 L 793.5 136 Q 795.5 133 801.5 134 Q 804.8 135.8 803 142.5 L 791 155.5 L 788 165.5 L 790.5 169 Q 795.5 172 804.5 171 L 837.5 164 Q 842.2 167.2 841 175 Q 844.6 177.2 853.5 176 L 854.5 177 L 869.5 177 Q 871.2 174.3 877.5 176 L 882 178.5 L 883 182 L 885.5 183 L 905.5 178 L 910 175 L 910 180.5 L 905.5 187 L 891.5 193 L 876.5 193 L 869.5 191 L 857.5 191 L 856.5 190 L 841.5 189 Q 833.8 186.8 829 181.5 Q 829.8 179.3 827.5 180 Q 826.3 177.7 821.5 179 L 810.5 181 L 791.5 181 Q 782.3 179.3 778 172.5 L 776.5 170 L 772.5 171 L 757.5 183 L 742.5 191 L 723.5 197 L 709.5 197 L 694 189 L 689 180.5 L 689 175.5 L 687 169.5 L 688 167.5 L 687 166.5 L 687 150.5 L 693 126.5 L 701 112.5 L 702 106.5 L 704 104.5 L 714 77.5 L 717 73.5 L 719 66.5 L 728 48.5 L 738.5 33 Z " /><path fill="rgb(65,58,66)" stroke="rgb(65,58,66)" stroke-width="1" opacity="0.8196078431372549" d="M 126.5 41 Q 140.8 39.8 146 47.5 L 148 51.5 L 149 63.5 L 145 83.5 L 142 89.5 L 141 99.5 L 139 102.5 L 135 119.5 L 132 124.5 L 132 128.5 Q 128.9 136.9 122.5 142 Q 119.5 142.9 121 138.5 L 126 125.5 L 127 117.5 L 129 114.5 L 129 110.5 L 131 107.5 L 136 89.5 L 136 84.5 L 139 74.5 L 140 57.5 L 137.5 54 L 127.5 52 L 105 67.5 L 80 101.5 L 80 103.5 L 69 118.5 L 57 140.5 L 50 161.5 Q 49.8 171.8 46 178.5 Q 47.3 188.8 45 195.5 L 46 196.5 L 46 206.5 L 48 211.5 L 55.5 221 L 71.5 227 L 83.5 227 L 123.5 215 L 139 207 Q 137.9 204.3 140.5 205 L 143 204 L 146 197 Q 142.2 196.3 141 199.5 Q 142.3 203.3 138.5 202 L 139 200.5 L 138 196.5 L 144.5 185 L 150 182 L 152 173 L 164.5 166 L 167.5 166 L 170 167 Q 172.1 170.3 171 178.5 Q 166.3 193.8 156.5 204 Q 153.9 203.2 155 206.5 Q 157.6 209.9 164.5 209 L 180.5 205 L 192 196.5 L 197 188.5 Q 195.3 182.2 198 180.5 L 196 172.5 L 196 165.5 L 191.5 159 Q 185.4 159.6 182.5 157 L 175.5 157 L 166.5 153 L 163 149.5 L 162 142.5 Q 165.5 136.5 175.5 137 L 185.5 140 L 194.5 148 Q 200.4 150.6 210.5 149 L 218.5 146 L 245.5 144 L 252 147 L 255 155.5 L 254 158.5 L 255 161.5 L 254 164.5 L 255 167.5 L 253 175.5 L 253 177.5 L 250 199 Q 256.4 198.8 259 193.5 L 268 182.5 L 271 176.5 L 271 172.5 L 275.5 167 Q 280.8 165.8 282 168.5 L 283 175.5 L 281 178.5 L 277 197.5 L 278 200 L 282.5 200 L 288.5 197 L 291.5 197 L 310 186 Q 308.9 183.3 311.5 184 L 323 171.5 L 323 169.5 L 329.5 160 Q 336 159 337 163.5 L 352 182.5 L 352 185 L 356 183.5 L 359 177 L 363 176 Q 361.4 178.1 362 183.5 L 359 186.5 L 358 191.5 L 354 197.5 L 352 206.5 Q 348 217.5 339.5 224 L 334.5 225 L 332 221.5 Q 334.1 209.1 341 201.5 L 342 195.5 Q 340.1 183.4 332.5 177 L 329 178.5 L 325.5 184 L 323 185.5 L 323 187.5 L 315.5 195 L 295.5 207 L 281.5 211 L 273.5 211 L 270 210 L 268 206.5 L 268 203 L 262.5 204 L 252.5 212 L 249 213 Q 250.1 216.5 242.5 215 L 238 210.5 L 238 199.5 L 244 176.5 L 245 157.5 Q 242.8 153.8 235.5 155 L 233.5 156 L 229.5 155 L 228.5 156 L 208.5 158 L 203 162.5 L 206 169.5 L 207 184.5 Q 203.8 199.3 193.5 207 L 187.5 212 Q 180.1 212.6 176.5 217 L 166.5 219 L 155.5 219 L 146.5 215 L 141.5 215 L 130.5 222 L 109.5 229 L 107.5 231 L 83.5 236 L 68.5 236 L 57.5 234 L 53.5 232 L 40 219.5 L 35 201.5 L 35 187.5 L 42 154.5 L 46 147.5 L 48 138.5 L 59 116.5 Q 71.6 93.6 88 74.5 L 88 72.5 L 100 60.5 L 100 59 L 102 59 Q 100.9 56.3 103.5 57 Q 111.8 45.8 126.5 41 Z " /><path fill="rgb(65,58,66)" stroke="rgb(65,58,66)" stroke-width="1" opacity="0.8196078431372549" d="M 823.5 48 Q 828 47 829 49.5 Q 827.8 57.3 822.5 61 Q 817.4 65.4 806.5 64 L 797 60 L 795 53.5 L 797.5 51 L 817.5 51 L 823.5 48 Z " /><path fill="rgb(65,58,66)" stroke="rgb(65,58,66)" stroke-width="1" opacity="0.8196078431372549" d="M 417.5 68 Q 423.3 67.3 424 71.5 L 425 77.5 Q 422.1 92.1 415 102.5 L 409 125.5 L 409 127.5 L 405 150.5 L 407 153.5 L 407.5 165 L 412 161.5 L 415 154 Q 417.7 155.1 417 152.5 L 433.5 142 L 441.5 135 L 458.5 126 L 461 126 L 461 128.5 L 454.5 136 L 430 156 L 426 161.5 L 426 164 Q 423.3 162.9 424 165.5 L 420 169.5 L 415 182.5 Q 408.5 189.8 406 200 L 402 202.5 L 398 213 L 395.5 214 L 392.5 212 Q 390.3 216.3 388 211.5 L 387 201.5 L 389 196.5 L 389 183.5 L 391 174.5 L 392 154.5 L 394 150.5 L 399 119.5 L 405 106.5 L 405 103.5 L 404 99.5 L 409 79.5 L 415.5 69 L 417.5 68 Z M 405 165 L 407 167 Q 408 164 405 165 Z M 403 168 L 404 173 L 406 170 L 403 168 Z M 395 181 L 395 188 L 397 188 L 397 182 L 395 181 Z M 394 205 L 392 210 L 395 209 L 394 205 Z " /><path fill="rgb(65,58,66)" stroke="rgb(65,58,66)" stroke-width="1" opacity="0.8196078431372549" d="M 756.5 94 L 759.5 95 L 765 94 Q 765.8 97.8 762.5 99 L 752.5 106 L 735.5 112 L 728.5 113 L 722.5 117 L 719.5 117 L 715 115.5 L 718 114 Q 716.9 107.3 721.5 105 L 744.5 96 L 749.5 96 L 756.5 94 Z " /><path fill="rgb(65,58,66)" stroke="rgb(65,58,66)" stroke-width="1" opacity="0.8196078431372549" d="M 541.5 147 L 548 148 L 548 153.5 L 538 175.5 L 537 182.5 L 541.5 192 L 543.5 193 L 555.5 193 L 574.5 185 L 582 178.5 L 583 169.5 L 587.5 163 L 595.5 162 Q 599.7 164.8 598 173.5 Q 595 176.5 595 182.5 L 599.5 186 Q 606.1 185.1 609 180.5 L 610.5 178 L 618.5 177 L 621 182.5 Q 618.8 183.8 620 188.5 L 624.5 195 Q 631 198.5 642.5 197 L 680.5 186 L 686.5 182 L 688 185.5 Q 678.8 196.3 664.5 202 L 659.5 202 L 647.5 207 L 626.5 209 L 621.5 208 L 612 202 L 608.5 195 L 594.5 196 L 583.5 191 L 561.5 202 L 543.5 204 Q 535 202.5 531 196.5 L 526.5 189 L 524 190.5 Q 524.8 192.8 522.5 192 L 508.5 203 L 505.5 203 L 497.5 208 L 477.5 214 L 465.5 215 Q 457.2 213.3 453 207.5 Q 448.3 202.7 450 191.5 L 457 180 L 462 176.5 Q 461.3 174.3 463.5 175 L 478.5 164 L 498.5 155 L 504.5 153 L 517.5 152 L 528 159.5 L 530 165.5 L 529 167.5 L 531 168.5 L 532 161.5 L 539 148 L 541.5 147 Z M 514 162 L 501 165 L 494 170 L 489 171 Q 484 176 477 178 Q 472 186 463 189 L 460 198 L 461 201 L 466 204 L 480 203 L 493 194 L 501 191 L 514 181 Q 513 178 516 179 L 519 176 L 520 165 Q 519 161 514 162 Z M 486 167 Q 482 168 482 173 L 485 171 Q 484 167 488 169 Q 489 166 486 167 Z " /></svg>